<?xml version="1.0" encoding="utf-8"?>
<!-- Generator: Adobe Illustrator 17.1.0, SVG Export Plug-In . SVG Version: 6.00 Build 0)  -->
<!DOCTYPE svg PUBLIC "-//W3C//DTD SVG 1.1//EN" "http://www.w3.org/Graphics/SVG/1.1/DTD/svg11.dtd">
<svg version="1.1" id="Layer_1" xmlns="http://www.w3.org/2000/svg" xmlns:xlink="http://www.w3.org/1999/xlink" x="0px" y="0px"
	 viewBox="0 0 419.5 281.5" enable-background="new 0 0 419.5 281.5" xml:space="preserve">
<path fill-rule="evenodd" clip-rule="evenodd" fill="#b51218" d="M405.8,95.8c-6.9-7-16.9-11-27.8-11c-3.6,0-7.4,0.4-11.1,1.3
	c-7.2,1.6-11.7,8.7-10.1,15.9c1.6,7.2,8.7,11.7,15.9,10.1v0c2-0.5,3.8-0.6,5.3-0.6c4.7,0.1,7.1,1.4,8.8,3.1c1.7,1.7,2.7,4.1,2.8,7.2
	c0,4.3-2.1,10.2-9.7,15.9c-7.6,5.6-21,10.6-42.3,10.6c-20.1,0-47.1-4.5-81.5-16.6c33.8-9.3,56.9-20.3,72.4-32.4
	c15.9-12.3,24.3-26.9,24.3-41.6c0-11.8-5.6-22-13.2-28.8c-7.7-6.8-17.6-10.7-28.1-10.8c-12-0.2-25.2,6.1-32.6,18.6
	c-3.8,6.3-1.9,14.5,4.4,18.4c6.3,3.8,14.5,1.8,18.4-4.4c3.1-4.7,5.8-5.6,9.8-5.8c3.4-0.1,7.5,1.5,10.3,4c2.8,2.6,4.2,5.4,4.3,8.8
	c0,4-2.2,11.1-14,20.5c-9.9,7.7-26.3,16.3-50.9,24.1c1.5-5,2.3-10.2,2.3-15.7c0-29.8-24.1-53.9-53.9-53.9s-53.9,24.1-53.9,53.9
	c0,5.5,0.8,10.7,2.3,15.7C133.3,94.5,116.9,86,107,78.2c-11.9-9.4-14-16.5-14-20.5c0-3.4,1.4-6.2,4.3-8.8c2.8-2.5,6.9-4.1,10.3-4.1
	c4,0.2,6.7,1.2,9.8,5.8c3.8,6.3,12.1,8.3,18.4,4.5c6.3-3.8,8.3-12.1,4.4-18.4c-7.4-12.5-20.6-18.9-32.6-18.7
	c-10.5,0-20.4,4-28.1,10.8c-7.6,6.7-13.2,17-13.2,28.8c0,14.6,8.4,29.2,24.3,41.6c15.5,12.1,38.7,23.1,72.4,32.4
	c-34.5,12.1-61.4,16.6-81.5,16.6c-21.3,0-34.8-5-42.3-10.6c-7.6-5.6-9.7-11.5-9.7-15.9c0-3.1,1.1-5.5,2.8-7.2c1.7-1.7,4.2-3,8.8-3.1
	c1.5,0,3.3,0.2,5.3,0.6c7.2,1.6,14.3-2.9,15.9-10.1c1.6-7.2-3-14.3-10.1-15.9c-3.8-0.8-7.5-1.3-11.1-1.3c-10.9,0-20.9,4-27.8,11
	c-6.9,6.9-10.5,16.4-10.5,26c-0.1,13.7,7.2,27.7,20.7,37.4c13.5,9.8,32.7,15.7,58.1,15.7c26.7,0,60.5-6.5,102.9-22.6
	c-8.7,33.2-20.7,54.8-32.4,67.8c-12.8,14.1-24.9,18.3-33.9,18.3c-6.2,0-11.1-2.1-14.3-4.8c-3.1-2.8-4.5-5.8-4.5-9.2
	c0-3.1,1.1-7.2,5.7-12.4c4.9-5.5,4.4-14-1.2-18.9c-5.5-4.9-14-4.4-18.8,1.2v0c-8.1,9-12.4,19.7-12.4,30.1c0,11.7,5.5,22.4,13.8,29.5
	c8.4,7.2,19.6,11.2,31.7,11.2c0,0,0.1,0,0.1,0c17.6,0,37-8.6,53.7-27.2c15.1-16.8,28.3-41.6,37.8-76.7c9.5,35.1,22.7,59.9,37.8,76.7
	c16.6,18.5,36,27.2,53.7,27.2c0,0,0.1,0,0.1,0c12.2,0,23.3-4,31.7-11.2c8.4-7.1,13.8-17.8,13.8-29.5c0-10.5-4.3-21.1-12.4-30.1
	c-4.9-5.5-13.3-6-18.9-1.1c-5.5,4.9-6,13.3-1.1,18.9v0c4.6,5.2,5.7,9.3,5.7,12.4c0,3.4-1.4,6.5-4.5,9.2c-3.1,2.7-8,4.8-14.3,4.8
	c-9,0-21.1-4.2-33.9-18.3c-11.7-13-23.7-34.6-32.4-67.8c42.4,16.1,76.1,22.6,102.8,22.6c25.4,0,44.6-5.9,58.1-15.7
	c13.4-9.7,20.7-23.7,20.7-37.4C416.3,112.2,412.7,102.7,405.8,95.8z M185.1,103.4c-3.8,0-6.8-3-6.8-6.8c0-3.8,3-6.8,6.8-6.8
	c3.8,0,6.8,3,6.8,6.8C191.9,100.4,188.9,103.4,185.1,103.4z M233.8,103.4c-3.8,0-6.8-3-6.8-6.8c0-3.8,3-6.8,6.8-6.8
	c3.8,0,6.8,3,6.8,6.8C240.7,100.4,237.6,103.4,233.8,103.4z"/>
</svg>
