<?xml version="1.0" encoding="utf-8"?>
<!-- Generator: Adobe Illustrator 17.1.0, SVG Export Plug-In . SVG Version: 6.00 Build 0)  -->
<!DOCTYPE svg PUBLIC "-//W3C//DTD SVG 1.1//EN" "http://www.w3.org/Graphics/SVG/1.1/DTD/svg11.dtd">
<svg version="1.1" id="Layer_1" xmlns="http://www.w3.org/2000/svg" xmlns:xlink="http://www.w3.org/1999/xlink" x="0px" y="0px"
	 viewBox="0 0 158.3 29.3" enable-background="new 0 0 158.3 29.3" xml:space="preserve">
<g>
	<path fill-rule="evenodd" clip-rule="evenodd" fill="#B51218" d="M44.5,9.4c-0.7-0.8-1.8-1.2-3-1.2c-0.4,0-0.8,0-1.2,0.1
		c-0.8,0.2-1.3,0.9-1.1,1.7c0.2,0.8,0.9,1.3,1.7,1.1v0c0.2,0,0.4-0.1,0.6-0.1c0.5,0,0.8,0.2,0.9,0.3c0.2,0.2,0.3,0.4,0.3,0.8
		c0,0.5-0.2,1.1-1,1.7c-0.8,0.6-2.3,1.1-4.6,1.1c-2.2,0-5.1-0.5-8.8-1.8c3.6-1,6.1-2.2,7.8-3.5c1.7-1.3,2.6-2.9,2.6-4.5
		c0-1.3-0.6-2.4-1.4-3.1c-0.8-0.7-1.9-1.2-3-1.2c-1.3,0-2.7,0.7-3.5,2c-0.4,0.7-0.2,1.6,0.5,2c0.7,0.4,1.6,0.2,2-0.5
		c0.3-0.5,0.6-0.6,1.1-0.6c0.4,0,0.8,0.2,1.1,0.4c0.3,0.3,0.5,0.6,0.5,0.9c0,0.4-0.2,1.2-1.5,2.2c-1.1,0.8-2.8,1.8-5.5,2.6
		c0.2-0.5,0.2-1.1,0.2-1.7c0-3.2-2.6-5.8-5.8-5.8s-5.8,2.6-5.8,5.8c0,0.6,0.1,1.2,0.2,1.7c-2.7-0.8-4.4-1.8-5.5-2.6
		c-1.3-1-1.5-1.8-1.5-2.2c0-0.4,0.2-0.7,0.5-0.9c0.3-0.3,0.7-0.4,1.1-0.4c0.4,0,0.7,0.1,1.1,0.6c0.4,0.7,1.3,0.9,2,0.5
		c0.7-0.4,0.9-1.3,0.5-2c-0.8-1.3-2.2-2-3.5-2c-1.1,0-2.2,0.4-3,1.2C8.5,2.9,7.9,4,7.9,5.3c0,1.6,0.9,3.2,2.6,4.5
		c1.7,1.3,4.2,2.5,7.8,3.5c-3.7,1.3-6.6,1.8-8.8,1.8c-2.3,0-3.7-0.5-4.6-1.1c-0.8-0.6-1-1.2-1-1.7c0-0.3,0.1-0.6,0.3-0.8
		c0.2-0.2,0.4-0.3,1-0.3c0.2,0,0.4,0,0.6,0.1c0.8,0.2,1.5-0.3,1.7-1.1c0.2-0.8-0.3-1.5-1.1-1.7C6,8.3,5.6,8.2,5.2,8.2
		c-1.2,0-2.3,0.4-3,1.2C1.4,10.2,1,11.2,1,12.2c0,1.5,0.8,3,2.2,4c1.5,1.1,3.5,1.7,6.3,1.7c2.9,0,6.5-0.7,11.1-2.4
		c-0.9,3.6-2.2,5.9-3.5,7.3c-1.4,1.5-2.7,2-3.7,2c-0.7,0-1.2-0.2-1.5-0.5c-0.3-0.3-0.5-0.6-0.5-1c0-0.3,0.1-0.8,0.6-1.3
		c0.5-0.6,0.5-1.5-0.1-2c-0.6-0.5-1.5-0.5-2,0.1v0c-0.9,1-1.3,2.1-1.3,3.2c0,1.3,0.6,2.4,1.5,3.2c0.9,0.8,2.1,1.2,3.4,1.2
		c0,0,0,0,0,0c1.9,0,4-0.9,5.8-2.9c1.6-1.8,3.1-4.5,4.1-8.3c1,3.8,2.4,6.5,4.1,8.3c1.8,2,3.9,2.9,5.8,2.9c0,0,0,0,0,0
		c1.3,0,2.5-0.4,3.4-1.2c0.9-0.8,1.5-1.9,1.5-3.2c0-1.1-0.5-2.3-1.3-3.2c-0.5-0.6-1.4-0.7-2-0.1c-0.6,0.5-0.7,1.4-0.1,2v0
		c0.5,0.6,0.6,1,0.6,1.3c0,0.4-0.2,0.7-0.5,1c-0.3,0.3-0.9,0.5-1.5,0.5c-1,0-2.3-0.5-3.7-2c-1.3-1.4-2.6-3.7-3.5-7.3
		c4.6,1.7,8.2,2.4,11.1,2.4c2.7,0,4.8-0.6,6.3-1.7c1.4-1.1,2.2-2.6,2.2-4C45.6,11.2,45.2,10.2,44.5,9.4z M20.7,10.2
		c-0.4,0-0.7-0.3-0.7-0.7c0-0.4,0.3-0.7,0.7-0.7c0.4,0,0.7,0.3,0.7,0.7C21.4,9.9,21.1,10.2,20.7,10.2z M26,10.2
		c-0.4,0-0.7-0.3-0.7-0.7c0-0.4,0.3-0.7,0.7-0.7c0.4,0,0.7,0.3,0.7,0.7C26.7,9.9,26.4,10.2,26,10.2z"/>
	<g>
		<path fill="#DE731D" d="M67.5,22.8l-1.3,0l0-12.5l-4,0l0-1.2l9.3,0l0,1.2l-4,0L67.5,22.8z"/>
		<path fill="#DE731D" d="M83.8,22.8l-1.3,0l0-13.7l1.3,0L83.8,22.8z"/>
		<path fill="#B51218" d="M90.3,14.9L95.9,9l1.7,0L91.9,15l7.7,7.8l-1.8,0L91,15.9l-0.7,0.8l0,6.1l-1.3,0l0-16.5l1.3,0L90.3,14.9z"
			/>
		<path fill="#B51218" d="M114.6,15.9c0,4.1-3.2,7.2-7.2,7.2c-3.9,0-7.1-3.2-7.1-7.1c0-3.9,3.1-7.2,7.1-7.2
			C111.4,8.7,114.6,11.8,114.6,15.9z M101.6,15.9c0,3.1,2.5,5.9,5.7,5.9c3.4,0,6-2.6,6-5.9c0-3.4-2.6-5.9-6-5.9
			C104,10,101.6,12.7,101.6,15.9z"/>
		<path fill="#B51218" d="M128.5,20.2L128.5,20.2c-1.1,1.8-3.3,2.8-5.3,2.8c-4.2,0-6.8-3.2-6.8-7.2c0-4,2.6-7.1,6.7-7.1
			c2.1,0,4.1,0.9,5.3,2.7h0.1l0-5.2l1.3,0l0,16.5l-1.3,0L128.5,20.2z M128.6,15.6c0-3.2-2.2-5.7-5.5-5.7c-3.1,0-5.3,2.9-5.3,5.8
			c0,3.1,2.1,6,5.4,6C126.7,21.7,128.6,18.9,128.6,15.6z"/>
		<path fill="#B51218" d="M134.4,15.9c-0.1,3.5,2.3,5.8,5.5,5.8c2.1,0,3.9-1.3,4.8-3.1l1.1,0.7c-1.2,2.4-3.4,3.7-6.1,3.7
			c-4.1,0-6.6-3.3-6.7-7.2c0-3.8,2.6-7.1,6.6-7.1c4.2,0,6.6,3.3,6.6,7.3L134.4,15.9z M145,14.7c-0.3-2.5-2.4-4.8-5.2-4.8
			c-2.8,0-5.1,2.2-5.3,4.8L145,14.7z"/>
		<path fill="#DE731D" d="M79.6,9.1c-4,0-6.6,3-6.6,6.8l0,6.9l1.3,0l0-6.5c-0.1-3.8,2.5-5.9,5.3-5.9L79.6,9.1
			C79.6,9.1,79.6,9.1,79.6,9.1z"/>
		<path fill="#B51218" d="M156.2,8.9c-4,0-6.6,3-6.6,6.8l0,6.9l1.3,0l0-6.5c-0.1-3.8,2.5-5.9,5.3-5.9L156.2,8.9
			C156.2,8.9,156.2,8.9,156.2,8.9z"/>
	</g>
</g>
</svg>
